<!-- Generated by IcoMoon.io -->
<svg version="1.1" xmlns="http://www.w3.org/2000/svg" width="64" height="32" viewBox="0 0 64 32">
<title>instagram</title>
<path fill="#afb1b8" d="M4.274 1.258c-0.010-0.227-0.047-0.384-0.099-0.519-0.057-0.149-0.141-0.275-0.247-0.379l-0-0c-0.104-0.106-0.231-0.19-0.371-0.244l-0.007-0.002c-0.136-0.053-0.292-0.089-0.519-0.099-0.229-0.011-0.302-0.013-0.883-0.013s-0.653 0.003-0.882 0.013c-0.227 0.010-0.384 0.047-0.519 0.099-0.149 0.057-0.275 0.141-0.38 0.247l-0 0c-0.106 0.104-0.19 0.23-0.244 0.371l-0.002 0.007c-0.053 0.136-0.089 0.292-0.099 0.519-0.011 0.229-0.013 0.302-0.013 0.883s0.003 0.653 0.013 0.882c0.010 0.227 0.047 0.384 0.099 0.519 0.057 0.148 0.141 0.275 0.247 0.379l0 0c0.107 0.109 0.237 0.193 0.379 0.246 0.136 0.053 0.292 0.090 0.519 0.099 0.228 0.010 0.301 0.013 0.882 0.013s0.654-0.003 0.882-0.013c0.227-0.010 0.384-0.047 0.519-0.099 0.288-0.114 0.512-0.338 0.623-0.619l0.003-0.007c0.053-0.136 0.089-0.292 0.099-0.519 0.010-0.228 0.012-0.301 0.012-0.882s-0.001-0.653-0.011-0.882zM3.889 3.005c-0.009 0.209-0.045 0.322-0.074 0.397-0.074 0.187-0.219 0.332-0.402 0.404l-0.005 0.002c-0.075 0.029-0.189 0.064-0.397 0.074-0.226 0.010-0.293 0.013-0.864 0.013s-0.639-0.003-0.864-0.013c-0.209-0.009-0.322-0.044-0.397-0.074-0.096-0.036-0.178-0.090-0.245-0.159l-0-0c-0.069-0.067-0.124-0.149-0.158-0.241l-0.002-0.005c-0.029-0.075-0.064-0.189-0.073-0.397-0.010-0.226-0.013-0.293-0.013-0.864s0.003-0.64 0.013-0.864c0.009-0.209 0.044-0.322 0.073-0.397 0.036-0.097 0.091-0.179 0.16-0.246l0-0c0.067-0.069 0.15-0.123 0.241-0.158l0.005-0.002c0.075-0.029 0.189-0.064 0.397-0.074 0.226-0.010 0.293-0.012 0.864-0.012s0.639 0.003 0.864 0.012c0.209 0.009 0.322 0.044 0.397 0.074 0.093 0.034 0.177 0.089 0.246 0.16 0.071 0.070 0.125 0.153 0.16 0.246 0.029 0.075 0.064 0.189 0.073 0.397 0.010 0.226 0.013 0.293 0.013 0.864s-0.003 0.637-0.013 0.863z"></path>
</svg>
