<!-- Generated by IcoMoon.io -->
<svg version="1.1" xmlns="http://www.w3.org/2000/svg" width="64" height="32" viewBox="0 0 64 32">
<title>linkedin</title>
<path fill="#afb1b8" d="M4.277 4.278h0.001v-1.569c0-0.768-0.165-1.359-1.062-1.359-0.431 0-0.721 0.237-0.839 0.461h-0.012v-0.39h-0.851v2.856h0.886v-1.414c0-0.372 0.071-0.733 0.532-0.733 0.454 0 0.461 0.425 0.461 0.756v1.391h0.885zM0.071 1.422h0.887v2.856h-0.887v-2.856zM0.514 0c-0.284 0-0.514 0.23-0.514 0.514v0c0 0.283 0.23 0.519 0.514 0.519s0.514-0.235 0.514-0.518c-0-0.284-0.23-0.514-0.514-0.514h-0z"></path>
</svg>
